<svg viewBox="0 0 760 389" width="100%" role="img" aria-label="ζ-атлас реальных рядов: медиана и 5–95 % постериора"><rect x="250.0" y="28" width="231.6" height="331" fill="#199e70" opacity="0.07"/><rect x="481.6" y="28" width="64.0" height="331" fill="#2a78d6" opacity="0.07"/><rect x="545.5" y="28" width="184.5" height="331" fill="#C0392B" opacity="0.07"/><text x="365.0" y="24" font-size="10.5" fill="#6b7a8a" text-anchor="middle">континуум</text><text x="513.4" y="24" font-size="10.5" fill="#6b7a8a" text-anchor="middle">иерархия</text><text x="637.5" y="24" font-size="10.5" fill="#6b7a8a" text-anchor="middle">выброс</text><line x1="305.5" y1="28" x2="305.5" y2="359" stroke="#E7EBF0"/><text x="305.5" y="373" font-size="10.5" fill="#6b7a8a" text-anchor="middle">0.1</text><line x1="393.5" y1="28" x2="393.5" y2="359" stroke="#E7EBF0"/><text x="393.5" y="373" font-size="10.5" fill="#6b7a8a" text-anchor="middle">0.3</text><line x1="490.0" y1="28" x2="490.0" y2="359" stroke="#E7EBF0"/><text x="490.0" y="373" font-size="10.5" fill="#6b7a8a" text-anchor="middle">1</text><line x1="578.0" y1="28" x2="578.0" y2="359" stroke="#E7EBF0"/><text x="578.0" y="373" font-size="10.5" fill="#6b7a8a" text-anchor="middle">3</text><line x1="674.5" y1="28" x2="674.5" y2="359" stroke="#E7EBF0"/><text x="674.5" y="373" font-size="10.5" fill="#6b7a8a" text-anchor="middle">10</text><line x1="490.0" y1="28" x2="490.0" y2="359" stroke="#6b7a8a" stroke-dasharray="4 4"/><text x="490.0" y="385" font-size="11" fill="#3b4a5a" text-anchor="middle">ζ = z₁ / z̄_rest (верхний реньевский лог-зазор к среднему остальных); отрезок — 5–95 % постериора</text><text x="242" y="42.5" font-size="10.5" fill="#1B2530" text-anchor="end">дипептид 400–700 K (SPEC-01, 6 прогонов)</text><line x1="615.7" y1="39.0" x2="707.0" y2="39.0" stroke="#C0392B" stroke-width="1.2" opacity="0.6"/><circle cx="615.7" cy="39.0" r="3.4" fill="#C0392B"><title>дипептид 400–700 K (SPEC-01, 6 прогонов): ζ = 4.80</title></circle><text x="242" y="55.5" font-size="10.5" fill="#1B2530" text-anchor="end">LJ13 сосуществование (SPEC-01)</text><line x1="486.7" y1="52.0" x2="527.7" y2="52.0" stroke="#2a78d6" stroke-width="1.2" opacity="0.6"/><circle cx="507.9" cy="52.0" r="3.4" fill="#2a78d6"><title>LJ13 сосуществование (SPEC-01): ζ = 1.25</title></circle><text x="242" y="68.5" font-size="10.5" fill="#1B2530" text-anchor="end">сон, 6 ночей (SPEC-01)</text><line x1="390.8" y1="65.0" x2="484.2" y2="65.0" stroke="#199e70" stroke-width="1.2" opacity="0.6"/><circle cx="461.4" cy="65.0" r="3.4" fill="#199e70"><title>сон, 6 ночей (SPEC-01): ζ = 0.70</title></circle><text x="242" y="81.5" font-size="10.5" fill="#1B2530" text-anchor="end">случайные обратимые цепи (нуль)</text><line x1="250.0" y1="78.0" x2="361.1" y2="78.0" stroke="#199e70" stroke-width="1.2" opacity="0.6"/><circle cx="297.1" cy="78.0" r="3.4" fill="#199e70"><title>случайные обратимые цепи (нуль): ζ = 0.09</title></circle><text x="242" y="107.5" font-size="10.5" fill="#1B2530" text-anchor="end">NGRIP δ¹⁸O 0–60 ka, m = 4</text><line x1="482.1" y1="104.0" x2="554.9" y2="104.0" stroke="#2a78d6" stroke-width="1.2" opacity="0.6"/><circle cx="526.7" cy="104.0" r="3.4" fill="#2a78d6"><title>NGRIP δ¹⁸O 0–60 ka, m = 4: ζ = 1.58</title></circle><text x="242" y="120.5" font-size="10.5" fill="#1B2530" text-anchor="end">NGRIP δ¹⁸O 0–60 ka, m = 1</text><line x1="513.2" y1="117.0" x2="557.1" y2="117.0" stroke="#2a78d6" stroke-width="1.2" opacity="0.6"/><circle cx="536.6" cy="117.0" r="3.4" fill="#2a78d6"><title>NGRIP δ¹⁸O 0–60 ka, m = 1: ζ = 1.79</title></circle><text x="242" y="133.4" font-size="10.5" fill="#1B2530" text-anchor="end">NGRIP 12–60 ka, m = 4 (пост-хок)</text><line x1="354.8" y1="129.9" x2="549.1" y2="129.9" stroke="#199e70" stroke-width="1.2" opacity="0.6"/><circle cx="462.8" cy="129.9" r="3.4" fill="#199e70"><title>NGRIP 12–60 ka, m = 4 (пост-хок): ζ = 0.71</title></circle><text x="242" y="146.4" font-size="10.5" fill="#1B2530" text-anchor="end">NGRIP 27–59 ka, m = 4 (пост-хок)</text><line x1="491.8" y1="142.9" x2="539.3" y2="142.9" stroke="#2a78d6" stroke-width="1.2" opacity="0.6"/><circle cx="518.9" cy="142.9" r="3.4" fill="#2a78d6"><title>NGRIP 27–59 ka, m = 4 (пост-хок): ζ = 1.43</title></circle><text x="242" y="159.4" font-size="10.5" fill="#1B2530" text-anchor="end">NGRIP 27–59 ka, фазовый суррогат</text><line x1="423.0" y1="155.9" x2="502.0" y2="155.9" stroke="#199e70" stroke-width="1.2" opacity="0.6"/><circle cx="467.8" cy="155.9" r="3.4" fill="#199e70"><title>NGRIP 27–59 ka, фазовый суррогат: ζ = 0.76</title></circle><text x="242" y="185.4" font-size="10.5" fill="#1B2530" text-anchor="end">ЭЭГ A (здоровые, глаза открыты)</text><line x1="390.7" y1="181.9" x2="505.2" y2="181.9" stroke="#199e70" stroke-width="1.2" opacity="0.6"/><circle cx="478.4" cy="181.9" r="3.4" fill="#199e70"><title>ЭЭГ A (здоровые, глаза открыты): ζ = 0.87</title></circle><line x1="483.8" y1="181.9" x2="516.3" y2="181.9" stroke="#2a78d6" stroke-width="1.2" opacity="0.6"/><circle cx="502.3" cy="181.9" r="3.4" fill="#2a78d6"><title>ЭЭГ A (здоровые, глаза открыты): ζ = 1.17</title></circle><line x1="447.9" y1="181.9" x2="490.8" y2="181.9" stroke="#199e70" stroke-width="1.2" opacity="0.6"/><circle cx="470.4" cy="181.9" r="3.4" fill="#199e70"><title>ЭЭГ A (здоровые, глаза открыты): ζ = 0.78</title></circle><line x1="452.0" y1="181.9" x2="482.8" y2="181.9" stroke="#199e70" stroke-width="1.2" opacity="0.6"/><circle cx="468.9" cy="181.9" r="3.4" fill="#199e70"><title>ЭЭГ A (здоровые, глаза открыты): ζ = 0.77</title></circle><line x1="403.6" y1="181.9" x2="488.1" y2="181.9" stroke="#199e70" stroke-width="1.2" opacity="0.6"/><circle cx="454.6" cy="181.9" r="3.4" fill="#199e70"><title>ЭЭГ A (здоровые, глаза открыты): ζ = 0.64</title></circle><text x="242" y="198.4" font-size="10.5" fill="#1B2530" text-anchor="end">ЭЭГ B (здоровые, глаза закрыты)</text><line x1="394.2" y1="194.9" x2="493.2" y2="194.9" stroke="#199e70" stroke-width="1.2" opacity="0.6"/><circle cx="452.1" cy="194.9" r="3.4" fill="#199e70"><title>ЭЭГ B (здоровые, глаза закрыты): ζ = 0.62</title></circle><line x1="347.6" y1="194.9" x2="521.9" y2="194.9" stroke="#199e70" stroke-width="1.2" opacity="0.6"/><circle cx="436.5" cy="194.9" r="3.4" fill="#199e70"><title>ЭЭГ B (здоровые, глаза закрыты): ζ = 0.51</title></circle><line x1="418.9" y1="194.9" x2="483.2" y2="194.9" stroke="#199e70" stroke-width="1.2" opacity="0.6"/><circle cx="453.1" cy="194.9" r="3.4" fill="#199e70"><title>ЭЭГ B (здоровые, глаза закрыты): ζ = 0.63</title></circle><line x1="370.3" y1="194.9" x2="456.8" y2="194.9" stroke="#199e70" stroke-width="1.2" opacity="0.6"/><circle cx="424.4" cy="194.9" r="3.4" fill="#199e70"><title>ЭЭГ B (здоровые, глаза закрыты): ζ = 0.44</title></circle><line x1="393.3" y1="194.9" x2="466.2" y2="194.9" stroke="#199e70" stroke-width="1.2" opacity="0.6"/><circle cx="434.3" cy="194.9" r="3.4" fill="#199e70"><title>ЭЭГ B (здоровые, глаза закрыты): ζ = 0.50</title></circle><text x="242" y="211.4" font-size="10.5" fill="#1B2530" text-anchor="end">ЭЭГ C (интерикт., противопол.)</text><line x1="384.5" y1="207.9" x2="499.7" y2="207.9" stroke="#199e70" stroke-width="1.2" opacity="0.6"/><circle cx="465.4" cy="207.9" r="3.4" fill="#199e70"><title>ЭЭГ C (интерикт., противопол.): ζ = 0.74</title></circle><line x1="442.0" y1="207.9" x2="510.8" y2="207.9" stroke="#2a78d6" stroke-width="1.2" opacity="0.6"/><circle cx="490.7" cy="207.9" r="3.4" fill="#2a78d6"><title>ЭЭГ C (интерикт., противопол.): ζ = 1.01</title></circle><line x1="435.1" y1="207.9" x2="474.6" y2="207.9" stroke="#199e70" stroke-width="1.2" opacity="0.6"/><circle cx="455.8" cy="207.9" r="3.4" fill="#199e70"><title>ЭЭГ C (интерикт., противопол.): ζ = 0.65</title></circle><line x1="419.1" y1="207.9" x2="496.6" y2="207.9" stroke="#199e70" stroke-width="1.2" opacity="0.6"/><circle cx="474.2" cy="207.9" r="3.4" fill="#199e70"><title>ЭЭГ C (интерикт., противопол.): ζ = 0.82</title></circle><line x1="445.3" y1="207.9" x2="488.7" y2="207.9" stroke="#199e70" stroke-width="1.2" opacity="0.6"/><circle cx="469.6" cy="207.9" r="3.4" fill="#199e70"><title>ЭЭГ C (интерикт., противопол.): ζ = 0.78</title></circle><text x="242" y="224.4" font-size="10.5" fill="#1B2530" text-anchor="end">ЭЭГ D (интерикт., очаг)</text><line x1="472.0" y1="220.9" x2="507.6" y2="220.9" stroke="#2a78d6" stroke-width="1.2" opacity="0.6"/><circle cx="490.7" cy="220.9" r="3.4" fill="#2a78d6"><title>ЭЭГ D (интерикт., очаг): ζ = 1.01</title></circle><line x1="471.1" y1="220.9" x2="509.4" y2="220.9" stroke="#2a78d6" stroke-width="1.2" opacity="0.6"/><circle cx="490.7" cy="220.9" r="3.4" fill="#2a78d6"><title>ЭЭГ D (интерикт., очаг): ζ = 1.01</title></circle><line x1="460.3" y1="220.9" x2="503.3" y2="220.9" stroke="#2a78d6" stroke-width="1.2" opacity="0.6"/><circle cx="481.6" cy="220.9" r="3.4" fill="#2a78d6"><title>ЭЭГ D (интерикт., очаг): ζ = 0.90</title></circle><line x1="449.3" y1="220.9" x2="485.5" y2="220.9" stroke="#199e70" stroke-width="1.2" opacity="0.6"/><circle cx="468.6" cy="220.9" r="3.4" fill="#199e70"><title>ЭЭГ D (интерикт., очаг): ζ = 0.77</title></circle><line x1="459.7" y1="220.9" x2="497.0" y2="220.9" stroke="#199e70" stroke-width="1.2" opacity="0.6"/><circle cx="481.1" cy="220.9" r="3.4" fill="#199e70"><title>ЭЭГ D (интерикт., очаг): ζ = 0.89</title></circle><text x="242" y="237.4" font-size="10.5" fill="#1B2530" text-anchor="end">ЭЭГ E (приступ)</text><line x1="489.1" y1="233.9" x2="518.4" y2="233.9" stroke="#2a78d6" stroke-width="1.2" opacity="0.6"/><circle cx="503.2" cy="233.9" r="3.4" fill="#2a78d6"><title>ЭЭГ E (приступ): ζ = 1.18</title></circle><line x1="480.3" y1="233.9" x2="517.1" y2="233.9" stroke="#2a78d6" stroke-width="1.2" opacity="0.6"/><circle cx="499.6" cy="233.9" r="3.4" fill="#2a78d6"><title>ЭЭГ E (приступ): ζ = 1.13</title></circle><line x1="459.8" y1="233.9" x2="498.9" y2="233.9" stroke="#2a78d6" stroke-width="1.2" opacity="0.6"/><circle cx="481.6" cy="233.9" r="3.4" fill="#2a78d6"><title>ЭЭГ E (приступ): ζ = 0.90</title></circle><line x1="467.8" y1="233.9" x2="507.0" y2="233.9" stroke="#2a78d6" stroke-width="1.2" opacity="0.6"/><circle cx="487.5" cy="233.9" r="3.4" fill="#2a78d6"><title>ЭЭГ E (приступ): ζ = 0.97</title></circle><line x1="460.1" y1="233.9" x2="497.6" y2="233.9" stroke="#199e70" stroke-width="1.2" opacity="0.6"/><circle cx="479.6" cy="233.9" r="3.4" fill="#199e70"><title>ЭЭГ E (приступ): ζ = 0.88</title></circle><text x="242" y="263.4" font-size="10.5" fill="#1B2530" text-anchor="end">планктон Бенинки (12 видов)</text><line x1="311.7" y1="259.9" x2="547.4" y2="259.9" stroke="#199e70" stroke-width="1.2" opacity="0.6"/><circle cx="435.3" cy="259.9" r="3.4" fill="#199e70"><title>планктон Бенинки (12 видов): ζ = 0.51</title></circle><text x="242" y="276.4" font-size="10.5" fill="#1B2530" text-anchor="end">LR04 бентосный стек</text><line x1="414.6" y1="272.9" x2="491.4" y2="272.9" stroke="#199e70" stroke-width="1.2" opacity="0.6"/><circle cx="453.2" cy="272.9" r="3.4" fill="#199e70"><title>LR04 бентосный стек: ζ = 0.63</title></circle><text x="242" y="289.4" font-size="10.5" fill="#1B2530" text-anchor="end">EPICA дейтерий</text><line x1="411.8" y1="285.9" x2="489.1" y2="285.9" stroke="#199e70" stroke-width="1.2" opacity="0.6"/><circle cx="452.5" cy="285.9" r="3.4" fill="#199e70"><title>EPICA дейтерий: ζ = 0.63</title></circle><text x="242" y="302.4" font-size="10.5" fill="#1B2530" text-anchor="end">солнечные пятна (контроль периодики)</text><line x1="482.8" y1="298.9" x2="515.7" y2="298.9" stroke="#2a78d6" stroke-width="1.2" opacity="0.6"/><circle cx="500.0" cy="298.9" r="3.4" fill="#2a78d6"><title>солнечные пятна (контроль периодики): ζ = 1.13</title></circle><text x="242" y="315.4" font-size="10.5" fill="#1B2530" text-anchor="end">корь, Нью-Йорк</text><line x1="465.8" y1="311.9" x2="505.9" y2="311.9" stroke="#2a78d6" stroke-width="1.2" opacity="0.6"/><circle cx="486.3" cy="311.9" r="3.4" fill="#2a78d6"><title>корь, Нью-Йорк: ζ = 0.95</title></circle><text x="242" y="328.4" font-size="10.5" fill="#1B2530" text-anchor="end">гейзер Старый Верный</text><text x="264.6" y="328.4" font-size="10" fill="#6b7a8a">не разрешён</text><text x="242" y="341.4" font-size="10.5" fill="#1B2530" text-anchor="end">COVID приросты (DE, US, IT)</text><line x1="321.1" y1="337.9" x2="524.1" y2="337.9" stroke="#199e70" stroke-width="1.2" opacity="0.6"/><circle cx="459.1" cy="337.9" r="3.4" fill="#199e70"><title>COVID приросты (DE, US, IT): ζ = 0.68</title></circle><line x1="250.0" y1="337.9" x2="554.7" y2="337.9" stroke="#199e70" stroke-width="1.2" opacity="0.6"/><circle cx="459.4" cy="337.9" r="3.4" fill="#199e70"><title>COVID приросты (DE, US, IT): ζ = 0.68</title></circle><line x1="379.0" y1="337.9" x2="539.2" y2="337.9" stroke="#199e70" stroke-width="1.2" opacity="0.6"/><circle cx="475.6" cy="337.9" r="3.4" fill="#199e70"><title>COVID приросты (DE, US, IT): ζ = 0.84</title></circle><text x="242" y="354.4" font-size="10.5" fill="#1B2530" text-anchor="end">термоакустика перед Хопфом (3 ряда)</text><line x1="361.1" y1="350.9" x2="452.9" y2="350.9" stroke="#199e70" stroke-width="1.2" opacity="0.6"/><circle cx="411.4" cy="350.9" r="3.4" fill="#199e70"><title>термоакустика перед Хопфом (3 ряда): ζ = 0.37</title></circle><line x1="437.5" y1="350.9" x2="481.8" y2="350.9" stroke="#199e70" stroke-width="1.2" opacity="0.6"/><circle cx="458.5" cy="350.9" r="3.4" fill="#199e70"><title>термоакустика перед Хопфом (3 ряда): ζ = 0.68</title></circle><line x1="390.0" y1="350.9" x2="474.5" y2="350.9" stroke="#199e70" stroke-width="1.2" opacity="0.6"/><circle cx="441.7" cy="350.9" r="3.4" fill="#199e70"><title>термоакустика перед Хопфом (3 ряда): ζ = 0.55</title></circle></svg>